<svg width="20" height="20" viewBox="0 0 20 20" fill="none" xmlns="http://www.w3.org/2000/svg">
<path fill-rule="evenodd" clip-rule="evenodd" d="M1.66666 6.24992C1.66666 4.63909 2.97249 3.33325 4.58332 3.33325H17.5C17.8073 3.33325 18.0897 3.50241 18.2347 3.77337C18.3797 4.04433 18.3638 4.37312 18.1934 4.62884C17.5466 5.59892 17.5466 6.90092 18.1934 7.871C18.3638 8.12672 18.3797 8.4555 18.2347 8.72647C18.0897 8.99743 17.8073 9.16659 17.5 9.16659H4.58332C2.97249 9.16659 1.66666 7.86075 1.66666 6.24992ZM4.58332 4.99992C3.89297 4.99992 3.33332 5.55956 3.33332 6.24992C3.33332 6.94027 3.89297 7.49992 4.58332 7.49992H16.2128C15.9846 6.68427 15.9846 5.81557 16.2128 4.99992H4.58332Z" fill="#0b1e3c"/>
<path d="M10.8333 15.8333C10.8333 16.2935 10.4602 16.6666 9.99999 16.6666L2.49999 16.6666C2.19266 16.6666 1.91028 16.4974 1.76526 16.2265C1.62025 15.9555 1.63614 15.6267 1.80662 15.371C2.45334 14.4009 2.45334 13.0989 1.80662 12.1288C1.63614 11.8731 1.62025 11.5443 1.76526 11.2734C1.91028 11.0024 2.19266 10.8333 2.49999 10.8333H9.99999C10.4602 10.8333 10.8333 11.2063 10.8333 11.6666C10.8333 12.1268 10.4602 12.4999 9.99999 12.4999H3.78721C4.01536 13.3156 4.01536 14.1843 3.78721 14.9999H9.99999C10.4602 14.9999 10.8333 15.373 10.8333 15.8333Z" fill="#0b1e3c"/>
<path fill-rule="evenodd" clip-rule="evenodd" d="M19.1667 13.7499C19.1667 15.821 17.4877 17.4999 15.4167 17.4999C13.3456 17.4999 11.6667 15.821 11.6667 13.7499C11.6667 11.6789 13.3456 9.99992 15.4167 9.99992C17.4877 9.99992 19.1667 11.6789 19.1667 13.7499ZM15.4167 11.4583C15.7618 11.4583 16.0417 11.7381 16.0417 12.0833V13.1249H17.0833C17.4285 13.1249 17.7083 13.4047 17.7083 13.7499C17.7083 14.0951 17.4285 14.3749 17.0833 14.3749H16.0417V15.4166C16.0417 15.7618 15.7618 16.0416 15.4167 16.0416C15.0715 16.0416 14.7917 15.7618 14.7917 15.4166V14.3749H13.75C13.4048 14.3749 13.125 14.0951 13.125 13.7499C13.125 13.4047 13.4048 13.1249 13.75 13.1249H14.7917V12.0833C14.7917 11.7381 15.0715 11.4583 15.4167 11.4583Z" fill="#0b1e3c"/>
</svg>
