<?xml version="1.0" encoding="UTF-8"?>
<svg width="24px" height="24px" viewBox="0 0 24 24" version="1.1" xmlns="http://www.w3.org/2000/svg" xmlns:xlink="http://www.w3.org/1999/xlink">
    <!-- Generator: Sketch 64 (93537) - https://sketch.com -->
    <title>liebiaomoshi</title>
    <desc>Created with Sketch.</desc>
    <g id="liebiaomoshi" stroke="none" stroke-width="1" fill="none" fill-rule="evenodd">
        <path d="M4,6 C4,4.34315 5.34315,3 7,3 L17,3 C18.6569,3 20,4.34315 20,6 L20,8 C20,9.65685 18.6569,11 17,11 L7,11 C5.34315,11 4,9.65685 4,8 L4,6 Z M7,5 C6.44772,5 6,5.44772 6,6 L6,8 C6,8.55228 6.44772,9 7,9 L17,9 C17.5523,9 18,8.55228 18,8 L18,6 C18,5.44772 17.5523,5 17,5 L7,5 Z M4,16 C4,14.3431 5.34315,13 7,13 L17,13 C18.6569,13 20,14.3431 20,16 L20,18 C20,19.6569 18.6569,21 17,21 L7,21 C5.34315,21 4,19.6569 4,18 L4,16 Z M7,15 C6.44772,15 6,15.4477 6,16 L6,18 C6,18.5523 6.44772,19 7,19 L17,19 C17.5523,19 18,18.5523 18,18 L18,16 C18,15.4477 17.5523,15 17,15 L7,15 Z" id="形状" fill="#e0e0e0"></path>
    </g>
</svg>