<?xml version="1.0" encoding="UTF-8"?>
<svg width="24px" height="24px" viewBox="0 0 24 24" version="1.1" xmlns="http://www.w3.org/2000/svg" xmlns:xlink="http://www.w3.org/1999/xlink">
    <!-- Generator: Sketch 64 (93537) - https://sketch.com -->
    <title>24_xiazai</title>
    <desc>Created with Sketch.</desc>
    <g id="24_xiazai" stroke="none" stroke-width="1" fill="none" fill-rule="evenodd">
        <path d="M16.5,6 C19.5376,6 22,8.46243 22,11.5 C22,14.5376 19.5376,17 16.5,17 C15.9477,17 15.5,16.5523 15.5,16 C15.5,15.4477 15.9477,15 16.5,15 C18.433,15 20,13.433 20,11.5 C20,9.567 18.433,8 16.5,8 C14.567,8 13,9.567 13,11.5 C13,11.5863 12.9891,11.6701 12.9685,11.75 L12.991975,11.8726 L12.991975,11.8726 L13,12 L13,19.2709 L14.1496,18.1213 C14.5401,17.7307 15.1733,17.7307 15.5638,18.1213 C15.9242615,18.4817615 15.9519893,19.0490207 15.6469834,19.4412973 L15.5638,19.5355 L13.4425,21.6568 C12.7026053,22.3966947 11.5270607,22.4356366 10.741308,21.7736255 L10.6141,21.6568 L8.49275,19.5355 C8.10223,19.145 8.10223,18.5118 8.49275,18.1213 C8.85323923,17.7607462 9.42046645,17.7330112 9.81275366,18.0380953 L9.90696,18.1213 L11,19.2143 L11,12 C11,11.9137 11.0109,11.8299 11.0315,11.75 C11.0109,11.6701 11,11.5863 11,11.5 C11,8.46243 13.4624,6 16.5,6 Z M12,2 C13.4935,2 14.835,2.65607 15.7497,3.69244 C16.1152,4.10651 16.0758,4.73845 15.6617,5.10391 C15.2477,5.46938 14.6157,5.42998 14.2503,5.01591 C13.6991,4.39144 12.8959,4 12,4 C10.3431,4 9,5.34315 9,7 C9,7.55228 8.55228,8 8,8 C7.91367,8 7.8299,7.98906 7.75,7.9685 C7.67009,7.98906 7.58633,8 7.5,8 C5.567,8 4,9.567 4,11.5 C4,13.433 5.567,15 7.5,15 C8.05228,15 8.5,15.4477 8.5,16 C8.5,16.5523 8.05228,17 7.5,17 C4.46243,17 2,14.5376 2,11.5 C2,8.59794 4.24764,6.22084 7.09709,6.01453 C7.55473,3.72506 9.57591,2 12,2 Z" id="形状" fill="#191919"></path>
    </g>
</svg>