<?xml version="1.0" encoding="UTF-8"?>
<svg width="24px" height="24px" viewBox="0 0 24 24" version="1.1" xmlns="http://www.w3.org/2000/svg" xmlns:xlink="http://www.w3.org/1999/xlink">
    <!-- Generator: Sketch 64 (93537) - https://sketch.com -->
    <title>tuqiangmoshi</title>
    <desc>Created with Sketch.</desc>
    <g id="tuqiangmoshi" stroke="none" stroke-width="1" fill="none" fill-rule="evenodd">
        <path d="M3,7 C3,5.34315 4.34315,4 6,4 L8,4 C9.65685,4 11,5.34315 11,7 L11,17 C11,18.6569 9.65685,20 8,20 L6,20 C4.34315,20 3,18.6569 3,17 L3,7 Z M6,6 C5.44772,6 5,6.44772 5,7 L5,17 C5,17.5523 5.44772,18 6,18 L8,18 C8.55228,18 9,17.5523 9,17 L9,7 C9,6.44772 8.55228,6 8,6 L6,6 Z M13,7 C13,5.34315 14.3431,4 16,4 L18,4 C19.6569,4 21,5.34315 21,7 L21,17 C21,18.6569 19.6569,20 18,20 L16,20 C14.3431,20 13,18.6569 13,17 L13,7 Z M16,6 C15.4477,6 15,6.44772 15,7 L15,17 C15,17.5523 15.4477,18 16,18 L18,18 C18.5523,18 19,17.5523 19,17 L19,7 C19,6.44772 18.5523,6 18,6 L16,6 Z" id="形状" fill="#e0e0e0"></path>
    </g>
</svg>