<svg width="20" height="20" viewBox="0 0 20 20" fill="none" xmlns="http://www.w3.org/2000/svg">
<path fill-rule="evenodd" clip-rule="evenodd" d="M1.5 6.24984C1.5 4.54696 2.88045 3.1665 4.58333 3.1665H17.3333C17.7021 3.1665 18.041 3.36949 18.215 3.69465C18.389 4.0198 18.37 4.41435 18.1654 4.7212C17.556 5.6353 17.556 6.86437 18.1654 7.77847C18.37 8.08533 18.389 8.47987 18.215 8.80503C18.041 9.13019 17.7021 9.33317 17.3333 9.33317H4.58333C2.88045 9.33317 1.5 7.95271 1.5 6.24984ZM4.58333 5.1665C3.98502 5.1665 3.5 5.65153 3.5 6.24984C3.5 6.84815 3.98503 7.33317 4.58333 7.33317H15.8316C15.6672 6.62154 15.6672 5.87813 15.8316 5.1665H4.58333ZM6.83333 15.8332C6.83333 16.3855 6.38562 16.8332 5.83333 16.8332L2.66667 16.8332C2.29787 16.8332 1.95901 16.6302 1.78499 16.305C1.61097 15.9799 1.63005 15.5853 1.83462 15.2785C2.44402 14.3644 2.44402 13.1353 1.83462 12.2212C1.63005 11.9144 1.61097 11.5198 1.78499 11.1947C1.95901 10.8695 2.29787 10.6665 2.66667 10.6665L15.4167 10.6665C17.1195 10.6665 18.5 12.047 18.5 13.7499C18.5 15.4527 17.1195 16.8332 15.4167 16.8332H14.1667C13.6144 16.8332 13.1667 16.3855 13.1667 15.8332C13.1667 15.2809 13.6144 14.8332 14.1667 14.8332H15.4167C16.015 14.8332 16.5 14.3482 16.5 13.7499C16.5 13.1515 16.015 12.6665 15.4167 12.6665L4.16838 12.6665C4.33276 13.3782 4.33276 14.1216 4.16838 14.8332L5.83333 14.8332C6.38562 14.8332 6.83333 15.2809 6.83333 15.8332ZM12.6333 14.8498C12.9647 14.408 12.8752 13.7812 12.4333 13.4498C11.9915 13.1185 11.3647 13.208 11.0333 13.6498L9.79203 15.3049L9.35155 14.7763C8.99798 14.3521 8.36742 14.2947 7.94314 14.6483C7.51886 15.0019 7.46154 15.6324 7.8151 16.0567L8.82225 17.2653C9.35942 17.9099 10.3575 17.8843 10.8609 17.213L12.6333 14.8498Z" fill="#B5BCCE"/>
</svg>
