<?xml version="1.0" encoding="UTF-8"?>
<svg width="24px" height="24px" viewBox="0 0 24 24" version="1.1" xmlns="http://www.w3.org/2000/svg" xmlns:xlink="http://www.w3.org/1999/xlink">
    <!-- Generator: Sketch 64 (93537) - https://sketch.com -->
    <title>24_shezhi</title>
    <desc>Created with Sketch.</desc>
    <g id="24_shezhi" stroke="none" stroke-width="1" fill="none" fill-rule="evenodd">
        <path d="M12.9192,4.60608 L18.9192,18.6061 C19.1367,19.1137 18.9016,19.7016 18.3939,19.9191 C17.8863,20.1367 17.2984,19.9015 17.0809,19.3939 L15.6231,15.9925 C15.5828,15.9974 15.5417,16 15.5,16 L8.37369,16 L6.91916,19.3939 C6.7016,19.9015 6.11372,20.1367 5.60609,19.9191 C5.09846,19.7016 4.86331,19.1137 5.08087,18.6061 L11.0809,4.60608 C11.2384,4.2384 11.6,4 12,4 C12.4,4 12.7616,4.2384 12.9192,4.60608 Z M14.7692,14 L12,7.53859 L9.23084,14 L14.7692,14 Z" id="形状" fill="#191919"></path>
    </g>
</svg>