<?xml version="1.0" encoding="UTF-8"?>
<svg width="24px" height="24px" viewBox="0 0 24 24" version="1.1" xmlns="http://www.w3.org/2000/svg" xmlns:xlink="http://www.w3.org/1999/xlink">
    <!-- Generator: Sketch 64 (93537) - https://sketch.com -->
    <title>24_mulu</title>
    <desc>Created with Sketch.</desc>
    <g id="24_mulu" stroke="none" stroke-width="1" fill="none" fill-rule="evenodd">
        <path d="M4.25,6.25 C3.55964,6.25 3,5.69036 3,5 C3,4.30964 3.55964,3.75 4.25,3.75 C4.94036,3.75 5.5,4.30964 5.5,5 C5.5,5.69036 4.94036,6.25 4.25,6.25 Z M4.25,13.25 C3.55964,13.25 3,12.6904 3,12 C3,11.3096 3.55964,10.75 4.25,10.75 C4.94036,10.75 5.5,11.3096 5.5,12 C5.5,12.6904 4.94036,13.25 4.25,13.25 Z M5.5,19 C5.5,19.6904 4.94036,20.25 4.25,20.25 C3.55964,20.25 3,19.6904 3,19 C3,18.3096 3.55964,17.75 4.25,17.75 C4.94036,17.75 5.5,18.3096 5.5,19 Z M9,4 L20,4 C20.5523,4 21,4.44772 21,5 C21,5.55228 20.5523,6 20,6 L9,6 C8.44772,6 8,5.55228 8,5 C8,4.44772 8.44772,4 9,4 Z M9,11 L20,11 C20.5523,11 21,11.4477 21,12 C21,12.5523 20.5523,13 20,13 L9,13 C8.44772,13 8,12.5523 8,12 C8,11.4477 8.44772,11 9,11 Z M9,18 L20,18 C20.5523,18 21,18.4477 21,19 C21,19.5523 20.5523,20 20,20 L9,20 C8.44772,20 8,19.5523 8,19 C8,18.4477 8.44772,18 9,18 Z" id="形状" fill="#7b7b7b" fill-rule="nonzero"></path>
    </g>
</svg>