<?xml version="1.0" encoding="UTF-8"?>
<svg width="24px" height="24px" viewBox="0 0 24 24" version="1.1" xmlns="http://www.w3.org/2000/svg" xmlns:xlink="http://www.w3.org/1999/xlink">
    <!-- Generator: Sketch 64 (93537) - https://sketch.com -->
    <title>24_rijian</title>
    <desc>Created with Sketch.</desc>
    <g id="24_rijian" stroke="none" stroke-width="1" fill="none" fill-rule="evenodd">
        <path d="M12,19 C12.51285,19 12.9355092,19.386027 12.9932725,19.8833761 L13,20 L13,21 C13,21.5523 12.5523,22 12,22 C11.48715,22 11.0644908,21.613973 11.0067275,21.1166239 L11,21 L11,20 C11,19.4477 11.4477,19 12,19 Z M18.2696776,16.8665166 L18.3639,16.9497 L19.071,17.6568 C19.4615,18.0474 19.4615,18.6805 19.071,19.0711 C18.7104462,19.4315615 18.1432651,19.4592893 17.7510011,19.1542834 L17.6568,19.0711 L16.9496,18.364 C16.5591,17.9734 16.5591,17.3403 16.9496,16.9497 C17.3101538,16.5892385 17.8773349,16.5615107 18.2696776,16.8665166 Z M7.05006,16.9497 C7.41054923,17.3102538 7.43827917,17.8774349 7.13324982,18.2697776 L7.05006,18.364 L6.34295,19.0711 C5.95243,19.4616 5.31927,19.4616 4.92874,19.0711 C4.56826,18.7105462 4.54053077,18.1433651 4.84555231,17.7510224 L4.92874,17.6568 L5.63585,16.9497 C6.02637,16.5592 6.65954,16.5592 7.05006,16.9497 Z M12,7 C14.7614,7 17,9.23858 17,12 C17,14.7614 14.7614,17 12,17 C9.23858,17 7,14.7614 7,12 C7,9.23858 9.23858,7 12,7 Z M12,9 C10.3431,9 9,10.3431 9,12 C9,13.6569 10.3431,15 12,15 C13.6569,15 15,13.6569 15,12 C15,10.3431 13.6569,9 12,9 Z M21,11 C21.5523,11 22,11.4477 22,12 C22,12.5523 21.5523,13 21,13 L20,13 C19.4477,13 19,12.5523 19,12 C19,11.4477 19.4477,11 20,11 L21,11 Z M4,11 C4.55228,11 5,11.4477 5,12 C5,12.51285 4.61395571,12.9355092 4.11662025,12.9932725 L4,13 L3,13 C2.44772,13 2,12.5523 2,12 C2,11.48715 2.38604429,11.0644908 2.88337975,11.0067275 L3,11 L4,11 Z M6.34305,4.92892 L7.05015,5.63603 C7.44068,6.02655 7.44068,6.65972 7.05015,7.05024 C6.65963,7.44077 6.02646,7.44077 5.63594,7.05024 L4.92883,6.34314 C4.53831,5.95261 4.53831,5.31945 4.92883,4.92892 C5.31936,4.5384 5.95252,4.5384 6.34305,4.92892 Z M19.0709,4.92892 C19.4614,5.31945 19.4614,5.95261 19.0709,6.34314 L18.3638,7.05024 C17.9732,7.44077 17.3401,7.44077 16.9496,7.05024 C16.559,6.65972 16.559,6.02655 16.9496,5.63603 L17.6567,4.92892 C18.0472,4.5384 18.6804,4.5384 19.0709,4.92892 Z M12,2 C12.51285,2 12.9355092,2.38604429 12.9932725,2.88337975 L13,3 L13,4 C13,4.55228 12.5523,5 12,5 C11.48715,5 11.0644908,4.61395571 11.0067275,4.11662025 L11,4 L11,3 C11,2.44772 11.4477,2 12,2 Z" id="形状" fill="#7b7b7b" fill-rule="nonzero"></path>
    </g>
</svg>