<?xml version="1.0" encoding="UTF-8"?>
<svg width="24px" height="24px" viewBox="0 0 24 24" version="1.1" xmlns="http://www.w3.org/2000/svg" xmlns:xlink="http://www.w3.org/1999/xlink">
    <!-- Generator: Sketch 64 (93537) - https://sketch.com -->
    <title>24_yejian</title>
    <desc>Created with Sketch.</desc>
    <g id="24_yejian" stroke="none" stroke-width="1" fill="none" fill-rule="evenodd">
        <path d="M7.03492,3.09595314 C7.51038,2.82347314 8.08009,3.16439314 8.18492,3.70226314 C9.08188,8.30454314 13.1353,11.7782231 18,11.7782231 C19.1203,11.7782231 20.1976,11.5940231 21.2032,11.2542231 C21.5838,11.1256231 22,11.3765231 22,11.7782231 C22,17.3011231 17.5228,21.7782231 12,21.7782231 C6.47715,21.7782231 2,17.3011231 2,11.7782231 C2,8.06243314 4.02667,4.81998314 7.03492,3.09595314 Z M6.95933,6.48608314 C6.82006,6.15988314 6.40031,6.05348314 6.15793,6.31242314 C4.818,7.74383314 4,9.66612314 4,11.7782231 C4,16.1965231 7.58172,19.7782231 12,19.7782231 C15.5157,19.7782231 18.5017,17.5104231 19.575,14.3578231 C19.6891,14.0225231 19.3984,13.7027231 19.0455,13.7332231 C18.7007,13.7630231 18.352,13.7782231 18,13.7782231 C13.0424,13.7782231 8.78979,10.7733631 6.95933,6.48608314 Z" id="形状" fill="#191919"></path>
    </g>
</svg>