<?xml version="1.0" encoding="UTF-8"?>
<svg width="24px" height="24px" viewBox="0 0 24 24" version="1.1" xmlns="http://www.w3.org/2000/svg" xmlns:xlink="http://www.w3.org/1999/xlink">
    <!-- Generator: Sketch 64 (93537) - https://sketch.com -->
    <title>24_zitixiao</title>
    <desc>Created with Sketch.</desc>
    <g id="24_zitixiao" stroke="none" stroke-width="1" fill="none" fill-rule="evenodd">
        <path d="M9.90859,4.98362 L14.9391,18.7033 C15.1293,19.2219 14.8631,19.7963 14.3445,19.9865 C13.826,20.1766 13.2515,19.9104 13.0614,19.3918 L11.4685,15.0476 L5.53205,15.0476 L3.93915,19.3918 C3.74902,19.9104 3.17454,20.1766 2.65602,19.9865 C2.13749,19.7963 1.87127,19.2219 2.0614,18.7033 L7.09196,4.98362 C7.57284,3.67213 9.42771,3.67213 9.90859,4.98362 Z M8.50027,6.95241 L6.26538,13.0476 L10.7352,13.0476 L8.50027,6.95241 Z M21.0002,11.0476 C21.5525,11.0476 22.0002,11.4953 22.0002,12.0476 C22.0002,12.56045 21.614173,12.9831092 21.1168239,13.0408725 L21.0002,13.0476 L16.0002,13.0476 C15.448,13.0476 15.0002,12.5999 15.0002,12.0476 C15.0002,11.53475 15.3863133,11.1120908 15.8835945,11.0543275 L16.0002,11.0476 L21.0002,11.0476 Z" id="形状" fill="#191919"></path>
    </g>
</svg>