<?xml version="1.0" encoding="UTF-8"?>
<svg width="16px" height="16px" viewBox="0 0 24 24" version="1.1" xmlns="http://www.w3.org/2000/svg" xmlns:xlink="http://www.w3.org/1999/xlink">
    <!-- Generator: Sketch 64 (93537) - https://sketch.com -->
    <title>shanchu</title>
    <desc>Created with Sketch.</desc>
    <g id="shanchu" stroke="none" stroke-width="1" fill="none" fill-rule="evenodd">
        <path d="M11,2 L13,2 C14.1046,2 15,2.89543 15,4 L20,4 C20.5523,4 21,4.44772 21,5 C21,5.55228 20.5523,6 20,6 L19.8824,6 L19.1661,18.1762 C19.0728,19.7619 17.7597,21 16.1713,21 L7.82872,21 C6.24029,21 4.92717,19.7619 4.83389,18.1762 L4.11765,6 L4,6 C3.44772,6 3,5.55228 3,5 C3,4.44772 3.44772,4 4,4 L9,4 C9,2.89543 9.89543,2 11,2 Z M6.1211,6 L6.83044,18.0587 C6.86153,18.5873 7.29924,19 7.82872,19 L16.1713,19 C16.7008,19 17.1385,18.5873 17.1696,18.0587 L17.8789,6 L6.1211,6 Z" id="形状" fill="#000000" fill-opacity="0.45"></path>
    </g>
</svg>