<?xml version="1.0" encoding="UTF-8"?>
<svg width="24px" height="24px" viewBox="0 0 24 24" version="1.1" xmlns="http://www.w3.org/2000/svg" xmlns:xlink="http://www.w3.org/1999/xlink">
    <!-- Generator: Sketch 64 (93537) - https://sketch.com -->
    <title>24_fanyedonghua</title>
    <desc>Created with Sketch.</desc>
    <g id="24_fanyedonghua" stroke="none" stroke-width="1" fill="none" fill-rule="evenodd">
        <path d="M14,21.9902 L14,22 L7,22 C5.34315,22 4,20.6569 4,19 L4,5 C4,3.34315 5.34315,2 7,2 L17,2 C18.6569,2 20,3.34315 20,5 L20,16 L19.9902,16 C19.9329,16.7068 19.6265,17.3735 19.1213,17.8787 L15.8787,21.1213 C15.3735,21.6265 14.7068,21.9328 14,21.9902 Z M7,4 C6.44772,4 6,4.44772 6,5 L6,19 C6,19.5523 6.44772,20 7,20 L12,20 L12,17 C12,15.3431 13.3431,14 15,14 L18,14 L18,5 C18,4.44772 17.5523,4 17,4 L7,4 Z M17.9701,16 L15,16 C14.4477,16 14,16.4477 14,17 L14,19.9701 C14.1743,19.9265 14.3353,19.8363 14.4645,19.7071 L17.7071,16.4645 C17.8363,16.3353 17.9265,16.1743 17.9701,16 Z" id="形状" fill="#191919"></path>
    </g>
</svg>