<?xml version="1.0" encoding="UTF-8"?>
<svg width="24px" height="24px" viewBox="0 0 24 24" version="1.1" xmlns="http://www.w3.org/2000/svg" xmlns:xlink="http://www.w3.org/1999/xlink">
    <!-- Generator: Sketch 64 (93537) - https://sketch.com -->
    <title>24_zitida</title>
    <desc>Created with Sketch.</desc>
    <g id="24_zitida" stroke="none" stroke-width="1" fill="none" fill-rule="evenodd">
        <path d="M9.85189924,4.84811917 L9.90854641,4.9836175 L14.9391464,18.7033075 C15.1292464,19.2219075 14.8630464,19.7963075 14.3445464,19.9865075 C13.8630821,20.1630289 13.3333321,19.946108 13.1079053,19.4989985 L13.0614464,19.3918075 L11.4685464,15.0476075 L5.53204641,15.0476075 L3.93914641,19.3918075 C3.74902641,19.9104075 3.17454641,20.1766075 2.65601641,19.9865075 C2.17453355,19.8098932 1.91058646,19.3020044 2.027565,18.8151298 L2.06139641,18.7033075 L7.09195641,4.9836175 C7.53848784,3.76580536 9.16976962,3.67881878 9.78548705,4.72265776 L9.85189924,4.84811917 Z M18.5002464,8.5476075 C19.0525464,8.5476075 19.5002464,8.9953275 19.5002464,9.5476075 L19.5002464,11.0476075 L21.0002464,11.0476075 C21.5525464,11.0476075 22.0002464,11.4953075 22.0002464,12.0476075 C22.0002464,12.5999075 21.5525464,13.0476075 21.0002464,13.0476075 L19.5002464,13.0476075 L19.5002464,14.5476075 C19.5002464,15.0999075 19.0525464,15.5476075 18.5002464,15.5476075 C17.9479464,15.5476075 17.5002464,15.0999075 17.5002464,14.5476075 L17.5002464,13.0476075 L16.0002464,13.0476075 C15.4479464,13.0476075 15.0002464,12.5999075 15.0002464,12.0476075 C15.0002464,11.4953075 15.4479464,11.0476075 16.0002464,11.0476075 L17.5002464,11.0476075 L17.5002464,9.5476075 C17.5002464,8.9953275 17.9479464,8.5476075 18.5002464,8.5476075 Z M8.50027641,6.9524175 L6.26537641,13.0476075 L10.7351464,13.0476075 L8.50027641,6.9524175 Z" id="形状" fill="#191919"></path>
    </g>
</svg>