<?xml version="1.0" encoding="UTF-8"?>
<svg width="24px" height="24px" viewBox="0 0 24 24" version="1.1" xmlns="http://www.w3.org/2000/svg" xmlns:xlink="http://www.w3.org/1999/xlink">
    <!-- Generator: Sketch 64 (93537) - https://sketch.com -->
    <title>24_gengduo</title>
    <desc>Created with Sketch.</desc>
    <g id="24_gengduo" stroke="none" stroke-width="1" fill="none" fill-rule="evenodd">
        <path d="M5,10.25 C5.9665,10.25 6.75,11.0335 6.75,12 C6.75,12.9665 5.9665,13.75 5,13.75 C4.0335,13.75 3.25,12.9665 3.25,12 C3.25,11.0335 4.0335,10.25 5,10.25 Z M12,10.25 C12.9665,10.25 13.75,11.0335 13.75,12 C13.75,12.9665 12.9665,13.75 12,13.75 C11.0335,13.75 10.25,12.9665 10.25,12 C10.25,11.0335 11.0335,10.25 12,10.25 Z M19,10.25 C19.9665,10.25 20.75,11.0335 20.75,12 C20.75,12.9665 19.9665,13.75 19,13.75 C18.0335,13.75 17.25,12.9665 17.25,12 C17.25,11.0335 18.0335,10.25 19,10.25 Z" id="形状结合" fill="#e0e0e0"></path>
    </g>
</svg>