<?xml version="1.0" encoding="UTF-8"?>
<svg width="24px" height="24px" viewBox="0 0 24 24" version="1.1" xmlns="http://www.w3.org/2000/svg" xmlns:xlink="http://www.w3.org/1999/xlink">
    <!-- Generator: Sketch 64 (93537) - https://sketch.com -->
    <title>paixu</title>
    <desc>Created with Sketch.</desc>
    <g id="paixu" stroke="none" stroke-width="1" fill="none" fill-rule="evenodd">
        <path d="M9,4.00003 L9,19.9999996 C9,20.5523 8.55228,20.9999996 8,20.9999996 C7.44772,20.9999996 7,20.5523 7,19.9999996 L7,6.41424 L4.70711,8.70714 C4.31658,9.09766 3.68342,9.09766 3.29289,8.70714 C2.90237,8.31661 2.90237,7.68345 3.29289,7.29292 L7.29289,3.29292 C7.57889,3.00692 8.00901,2.92137 8.38268,3.07615 C8.75636,3.23093 9,3.59557 9,4.00003 Z M15,20 L15,4.00003 C15,3.44775 15.4477,3.00003 16,3.00003 C16.5523,3.00003 17,3.44775 17,4.00003 L17,17.5858 L19.2929,15.2929 C19.6834,14.9024 20.3166,14.9024 20.7071,15.2929 C21.0976,15.6834 21.0976,16.3166 20.7071,16.7071 L16.7071,20.7071 C16.4211,20.9931 15.991,21.0787 15.6173,20.9239 C15.2436,20.7691 15,20.4045 15,20 Z" id="形状" fill="#0b1e3c" fill-rule="nonzero"></path>
    </g>
</svg>